<?xml version="1.0" encoding="utf-8"?>
<!-- Generator: Adobe Illustrator 18.0.0, SVG Export Plug-In . SVG Version: 6.00 Build 0)  -->
<!DOCTYPE svg PUBLIC "-//W3C//DTD SVG 1.1//EN" "http://www.w3.org/Graphics/SVG/1.1/DTD/svg11.dtd">
<svg version="1.1" xmlns="http://www.w3.org/2000/svg" xmlns:xlink="http://www.w3.org/1999/xlink" x="0px" y="0px"
	 viewBox="0 0 344.6 62.3" enable-background="new 0 0 344.6 62.3" xml:space="preserve">
<g id="Box">
</g>
<g id="Droplet">
	<g>
		<g>
			<linearGradient id="SVGID_1_" gradientUnits="userSpaceOnUse" x1="18.0884" y1="52.6852" x2="49.4794" y2="18.8113">
				<stop  offset="0" style="stop-color:#00ADEE"/>
				<stop  offset="0.5" style="stop-color:#2B388F"/>
				<stop  offset="1" style="stop-color:#00ADEE"/>
			</linearGradient>
			<path fill="url(#SVGID_1_)" d="M34.3,54.6L34.3,54.6h19c0.6,0,1.1-0.5,1.1-1.1v-27c0-0.3-0.1-0.6-0.4-0.8L30.5,7
				c-0.4-0.3-0.9-0.3-1.3,0L5.7,25.8c-0.3,0.2-0.4,0.5-0.4,0.8v26.9c0,0.6,0.5,1.1,1.1,1.1H34.3"/>
			<linearGradient id="SVGID_2_" gradientUnits="userSpaceOnUse" x1="10.1373" y1="45.3169" x2="41.5283" y2="11.443">
				<stop  offset="0" style="stop-color:#00ADEE"/>
				<stop  offset="0.5" style="stop-color:#2B388F"/>
				<stop  offset="1" style="stop-color:#00ADEE"/>
			</linearGradient>
			<path fill="url(#SVGID_2_)" d="M57.2,26.5c-0.4,0-0.9-0.1-1.3-0.4L29.7,4.9L3.5,26.1c-0.4,0.3-1,0.5-1.5,0.4
				c-0.5-0.1-1-0.4-1.4-0.8l-0.2-0.3c-0.6-0.9-0.4-2,0.4-2.7L28.5,0.4c0.7-0.6,1.8-0.6,2.5,0l27.8,22.1c0.4,0.3,0.7,0.8,0.7,1.3
				c0.1,0.5-0.1,1.1-0.4,1.5l-0.4,0.5C58.3,26.3,57.7,26.5,57.2,26.5z"/>
			<linearGradient id="SVGID_3_" gradientUnits="userSpaceOnUse" x1="-6.5116" y1="29.8883" x2="24.8794" y2="-3.9856">
				<stop  offset="0" style="stop-color:#00ADEE"/>
				<stop  offset="0.5" style="stop-color:#2B388F"/>
				<stop  offset="1" style="stop-color:#00ADEE"/>
			</linearGradient>
			<path fill="url(#SVGID_3_)" d="M13.2,11V5.4c0-0.7,0.5-1.3,1.1-1.3H18c0.6,0,0.9,0.5,0.9,1.2v1.2L13.2,11z"/>
		</g>
		<linearGradient id="SVGID_4_" gradientUnits="userSpaceOnUse" x1="42.8849" y1="53.8185" x2="33.6627" y2="41.0493">
			<stop  offset="0" style="stop-color:#F1F1F2"/>
			<stop  offset="0.1586" style="stop-color:#EDEFF1"/>
			<stop  offset="0.3161" style="stop-color:#E1E9ED"/>
			<stop  offset="0.4726" style="stop-color:#CDDEE7"/>
			<stop  offset="0.5" style="stop-color:#C9DCE6"/>
			<stop  offset="0.5529" style="stop-color:#D2E1E9"/>
			<stop  offset="0.6851" style="stop-color:#E3EAEE"/>
			<stop  offset="0.828" style="stop-color:#EEEFF1"/>
			<stop  offset="1" style="stop-color:#F1F1F2"/>
		</linearGradient>
		<path fill="url(#SVGID_4_)" d="M41.5,40.4c0,6.5-5.3,11.8-11.8,11.8s-11.8-5.3-11.8-11.8s7.3-15,11.8-29.8
			C34.8,25.4,41.5,33.9,41.5,40.4z"/>
	</g>
</g>
<g id="Text">
	<g>
		<path fill="#231F20" d="M63.7,30.5c-0.3,0-0.5-0.1-0.7-0.3s-0.3-0.4-0.3-0.7c0-0.3,0.1-0.5,0.3-0.7s0.4-0.3,0.7-0.3H81
			c0.3,0,0.5,0.1,0.7,0.3s0.3,0.4,0.3,0.7c0,0.3-0.1,0.5-0.3,0.7s-0.4,0.3-0.7,0.3h-7.7v23c0,0.3-0.1,0.5-0.3,0.7s-0.4,0.3-0.7,0.3
			s-0.5-0.1-0.7-0.3s-0.3-0.4-0.3-0.7v-23H63.7z"/>
		<path fill="#231F20" d="M84.8,29.5c0-0.3,0.1-0.5,0.3-0.7s0.4-0.3,0.7-0.3c0.3,0,0.5,0.1,0.7,0.3s0.3,0.4,0.3,0.7v9.7
			c2-1.9,4.1-2.9,6.4-2.9c2.3,0,4.3,0.8,6,2.5c1.7,1.6,2.5,3.6,2.5,6v8.8c0,0.3-0.1,0.5-0.3,0.7c-0.2,0.2-0.4,0.3-0.7,0.3
			s-0.5-0.1-0.7-0.3s-0.3-0.4-0.3-0.7v-8.8c0-1.8-0.6-3.3-1.9-4.5c-1.3-1.3-2.8-1.9-4.5-1.9s-3.3,0.6-4.5,1.9
			c-1.2,1.2-1.9,2.7-1.9,4.5v8.8c0,0.3-0.1,0.5-0.3,0.7s-0.4,0.3-0.7,0.3c-0.3,0-0.5-0.1-0.7-0.3s-0.3-0.4-0.3-0.7V29.5z"/>
		<path fill="#231F20" d="M118.6,50.6c0.3,0,0.5,0.1,0.7,0.3c0.2,0.2,0.3,0.4,0.3,0.7c0,0.3-0.1,0.5-0.3,0.7
			c-1.7,1.5-3.7,2.2-5.9,2.2c-2.5,0-4.7-0.9-6.4-2.7c-1.8-1.8-2.7-3.9-2.7-6.4s0.9-4.7,2.7-6.4c1.8-1.8,3.9-2.7,6.4-2.7
			c2.5,0,4.7,0.9,6.4,2.7c1.8,1.8,2.7,3.9,2.7,6.4c0,0.3-0.1,0.5-0.3,0.7s-0.4,0.3-0.7,0.3h-15.2c0.3,1.6,1,3,2.1,4
			c1.4,1.4,3.1,2.1,5,2.1c0.9,0,1.7-0.1,2.5-0.4c0.8-0.3,1.5-0.7,2.1-1.2C118.2,50.7,118.4,50.6,118.6,50.6z M120.5,44.4
			c-0.3-1.6-1-3-2-4c-1.4-1.4-3.1-2.1-5-2.1s-3.6,0.7-5,2.1c-1,1-1.7,2.4-2.1,4H120.5z"/>
		<path fill="#231F20" d="M141.3,28.5c3.6,0,6.7,1.3,9.2,3.8c2.5,2.5,3.8,5.6,3.8,9.2s-1.3,6.7-3.8,9.2c-2.5,2.5-5.6,3.8-9.2,3.8
			h-5.4c-0.3,0-0.5-0.1-0.7-0.3s-0.3-0.4-0.3-0.7v-24c0-0.3,0.1-0.5,0.3-0.7s0.4-0.3,0.7-0.3H141.3z M141.3,52.5
			c3,0,5.6-1.1,7.8-3.2c2.2-2.2,3.2-4.8,3.2-7.8c0-3-1.1-5.6-3.2-7.8c-2.2-2.2-4.8-3.2-7.8-3.2h-4.3v22H141.3z"/>
		<path fill="#231F20" d="M173.2,51.2c-2.2,2.2-4.6,3.3-7.1,3.3c-2.5,0-4.7-0.9-6.4-2.7c-1.8-1.8-2.7-3.9-2.7-6.4s0.9-4.7,2.7-6.4
			c1.8-1.8,3.9-2.7,6.4-2.7c2.5,0,4.7,0.9,6.4,2.7c1.8,1.8,2.7,3.9,2.7,6.4v8.1c0,0.3-0.1,0.5-0.3,0.7s-0.4,0.3-0.7,0.3
			s-0.5-0.1-0.7-0.3c-0.2-0.2-0.3-0.4-0.3-0.7V51.2z M166.2,38.3c-2,0-3.6,0.7-5,2.1c-1.4,1.4-2.1,3.1-2.1,5s0.7,3.6,2.1,5
			s3.1,2.1,5,2.1c2,0,3.6-0.7,5-2.1c1.4-1.4,2.1-3,2.1-5s-0.7-3.6-2.1-5C169.8,39,168.1,38.3,166.2,38.3z"/>
		<path fill="#231F20" d="M179.8,53.5c0,0.3-0.1,0.5-0.3,0.7s-0.4,0.3-0.7,0.3s-0.5-0.1-0.7-0.3c-0.2-0.2-0.3-0.4-0.3-0.7V37.3
			c0-0.3,0.1-0.5,0.3-0.7c0.2-0.2,0.4-0.3,0.7-0.3s0.5,0.1,0.7,0.3s0.3,0.4,0.3,0.7v1.1c1.6-1.4,3.3-2.1,5.1-2.1c2,0,3.6,0.7,5,2.1
			c0.3,0.3,0.7,0.8,1.1,1.3c0.4-0.5,0.7-0.9,1.1-1.3c1.4-1.4,3.1-2.1,5-2.1s3.6,0.7,5,2.1c1.4,1.4,2.1,3,2.1,5v10.1
			c0,0.3-0.1,0.5-0.3,0.7s-0.4,0.3-0.7,0.3s-0.5-0.1-0.7-0.3s-0.3-0.4-0.3-0.7V43.4c0-1.4-0.5-2.6-1.5-3.6c-1-1-2.2-1.5-3.6-1.5
			c-1.4,0-2.6,0.5-3.6,1.5c-1,1-1.5,2.2-1.5,3.6v10.1c0,0.3-0.1,0.5-0.3,0.7c-0.2,0.2-0.4,0.3-0.7,0.3s-0.5-0.1-0.7-0.3
			s-0.3-0.4-0.3-0.7V43.4c0-1.4-0.5-2.6-1.5-3.6c-1-1-2.2-1.5-3.6-1.5c-1.4,0-2.6,0.5-3.6,1.5c-1,1-1.5,2.2-1.5,3.6V53.5z"/>
		<path fill="#231F20" d="M208.5,61.3c0,0.3-0.1,0.5-0.3,0.7s-0.4,0.3-0.7,0.3c-0.3,0-0.5-0.1-0.7-0.3s-0.3-0.4-0.3-0.7V45.4
			c0-2.5,0.9-4.7,2.7-6.4c1.8-1.8,3.9-2.7,6.4-2.7c2.5,0,4.7,0.9,6.4,2.7c1.8,1.8,2.7,3.9,2.7,6.4s-0.9,4.7-2.7,6.4
			c-1.8,1.8-3.9,2.7-6.4,2.7c-2.5,0-4.7-0.9-6.4-2.7l-0.7-0.6V61.3z M208.5,45.4c0,2,0.7,3.6,2.1,5s3.1,2.1,5,2.1c2,0,3.6-0.7,5-2.1
			c1.4-1.4,2.1-3,2.1-5s-0.7-3.6-2.1-5c-1.4-1.4-3.1-2.1-5-2.1c-2,0-3.6,0.7-5,2.1C209.2,41.8,208.5,43.5,208.5,45.4z"/>
		<path fill="#231F20" d="M243.5,28.5c3.6,0,6.7,1.3,9.2,3.8c2.5,2.5,3.8,5.6,3.8,9.2s-1.3,6.7-3.8,9.2c-2.5,2.5-5.6,3.8-9.2,3.8
			h-5.4c-0.3,0-0.5-0.1-0.7-0.3s-0.3-0.4-0.3-0.7v-24c0-0.3,0.1-0.5,0.3-0.7s0.4-0.3,0.7-0.3H243.5z M243.5,52.5
			c3,0,5.6-1.1,7.8-3.2c2.2-2.2,3.2-4.8,3.2-7.8c0-3-1.1-5.6-3.2-7.8c-2.2-2.2-4.8-3.2-7.8-3.2h-4.3v22H243.5z"/>
		<path fill="#231F20" d="M277.5,45.4c0,2.5-0.9,4.7-2.7,6.4c-1.8,1.8-3.9,2.7-6.4,2.7c-2.5,0-4.7-0.9-6.4-2.7
			c-1.8-1.8-2.7-3.9-2.7-6.4s0.9-4.7,2.7-6.4c1.8-1.8,3.9-2.7,6.4-2.7c2.5,0,4.7,0.9,6.4,2.7C276.6,40.7,277.5,42.9,277.5,45.4z
			 M268.4,38.3c-2,0-3.6,0.7-5,2.1c-1.4,1.4-2.1,3.1-2.1,5s0.7,3.6,2.1,5s3.1,2.1,5,2.1c2,0,3.6-0.7,5-2.1c1.4-1.4,2.1-3,2.1-5
			s-0.7-3.6-2.1-5C272,39,270.3,38.3,268.4,38.3z"/>
		<path fill="#231F20" d="M294.4,50.6c0.3,0,0.5,0.1,0.7,0.3c0.2,0.2,0.3,0.4,0.3,0.7s-0.1,0.5-0.3,0.7c-0.8,0.7-1.7,1.2-2.8,1.6
			s-2.1,0.6-3.2,0.6c-2.5,0-4.7-0.9-6.4-2.7c-1.8-1.8-2.7-3.9-2.7-6.4s0.9-4.7,2.7-6.4c1.8-1.8,3.9-2.7,6.4-2.7
			c1.1,0,2.2,0.2,3.2,0.6s1.9,0.9,2.7,1.6c0.1,0.1,0.2,0.2,0.3,0.4c0.1,0.1,0.1,0.3,0.1,0.4c0,0.3-0.1,0.5-0.3,0.7s-0.4,0.3-0.7,0.3
			c-0.3,0-0.5-0.1-0.7-0.2c-1.3-1.2-2.9-1.7-4.6-1.7c-2,0-3.6,0.7-5,2.1c-1.4,1.4-2.1,3-2.1,5s0.7,3.6,2.1,5c1.4,1.4,3.1,2.1,5,2.1
			c0.9,0,1.7-0.2,2.5-0.5c0.8-0.3,1.5-0.7,2.2-1.3C294,50.6,294.2,50.6,294.4,50.6z"/>
		<path fill="#231F20" d="M307.5,52.5c0.3,0,0.5,0.1,0.7,0.3c0.2,0.2,0.3,0.4,0.3,0.7s-0.1,0.5-0.3,0.7c-0.2,0.2-0.4,0.3-0.7,0.3
			c-4.3,0-6.4-2.1-6.4-6.4v-9.8h-1.7c-0.3,0-0.5-0.1-0.7-0.3c-0.2-0.2-0.3-0.4-0.3-0.7s0.1-0.5,0.3-0.7c0.2-0.2,0.4-0.3,0.7-0.3h1.7
			v-6.8c0-0.3,0.1-0.5,0.3-0.7s0.4-0.3,0.7-0.3s0.5,0.1,0.7,0.3c0.2,0.2,0.3,0.4,0.3,0.7v6.8h3c0.3,0,0.5,0.1,0.7,0.3
			s0.3,0.4,0.3,0.7s-0.1,0.5-0.3,0.7s-0.4,0.3-0.7,0.3h-3v9.8C303.1,51,304.6,52.5,307.5,52.5z"/>
		<path fill="#231F20" d="M328.6,45.4c0,2.5-0.9,4.7-2.7,6.4c-1.8,1.8-3.9,2.7-6.4,2.7c-2.5,0-4.7-0.9-6.4-2.7
			c-1.8-1.8-2.7-3.9-2.7-6.4s0.9-4.7,2.7-6.4c1.8-1.8,3.9-2.7,6.4-2.7c2.5,0,4.7,0.9,6.4,2.7C327.7,40.7,328.6,42.9,328.6,45.4z
			 M319.5,38.3c-2,0-3.6,0.7-5,2.1c-1.4,1.4-2.1,3.1-2.1,5s0.7,3.6,2.1,5s3.1,2.1,5,2.1c2,0,3.6-0.7,5-2.1c1.4-1.4,2.1-3,2.1-5
			s-0.7-3.6-2.1-5C323.1,39,321.4,38.3,319.5,38.3z"/>
		<path fill="#231F20" d="M331.3,37.3c0-0.3,0.1-0.5,0.3-0.7s0.4-0.3,0.7-0.3c0.3,0,0.5,0.1,0.7,0.3s0.3,0.4,0.3,0.7v2.3
			c2.2-2.2,4.6-3.3,7.1-3.3c1.4,0,2.5,0.2,3.5,0.6c0.2,0.1,0.3,0.2,0.5,0.3c0.2,0.2,0.3,0.4,0.3,0.7c0,0.3-0.1,0.5-0.3,0.7
			s-0.4,0.3-0.7,0.3c-0.2,0-0.3,0-0.5-0.1c-0.8-0.4-1.7-0.6-2.8-0.6c-2,0-3.6,0.7-5,2.1c-1.4,1.4-2.1,3-2.1,5v8.1
			c0,0.3-0.1,0.5-0.3,0.7s-0.4,0.3-0.7,0.3c-0.3,0-0.5-0.1-0.7-0.3s-0.3-0.4-0.3-0.7V37.3z"/>
	</g>
</g>
</svg>
